<?xml version="1.0" standalone="no"?>
<!DOCTYPE svg PUBLIC "-//W3C//DTD SVG 1.1//EN"
  "http://www.w3.org/Graphics/SVG/1.1/DTD/svg11.dtd">
<svg
	width="316" height="482"
	
	xmlns="http://www.w3.org/2000/svg"
	xmlns:xlink="http://www.w3.org/1999/xlink" xml:space="preserve" overflow="hidden">

<title>Development Process</title>

<style type="text/css" >
<![CDATA[

	text {
		text-anchor: middle;
		font-family: sans-serif;
		font-smooth: always;
	}

	rect {
		stroke: #FFF;
		stroke-width: 1.5;
		fill: #DEEAF6;
		filter: url(#blur);
	}

	rect.cover {
		stroke: white;
		fill: #2E74B5;
		filter: url(#blur);
	}

	line {
		stroke: white;
		stroke-width: 2;
		marker-end: url(#arrow);
		filter: url(#glowing)
	}

	path.error {
		stroke: white;
		stroke-width: 2;
		marker-end: url(#arrow);
		filter: url(#glowing);
		fill: none;
	}

	text.error {
		fill: white;
		filter: url(#blur) url(#glowing);
	}

	.step {
		text-anchor: end;
		fill: white;
		filter: url(#blur) url(#glowing);
	}

	.solving {
		fill: #A89968;
	}
]]>
</style>

<defs>
	<!-- A marker to be used as an arrowhead -->
	<marker
		id="arrow"
		viewBox="0 0 10 10"
		refX="8"
		refY="5"
		markerWidth="6"
		markerHeight="6"
		orient="auto-start-reverse">
		<path d="M 0 0 L 10 5 L 0 10 z" fill="white" stroke="white" />
	</marker>

	<filter id="blur">
		<feDropShadow in="SourceGraphic" dx="1" dy="1" stdDeviation="1.5" />
	</filter>

	<filter id="glowing" filterUnits="userSpaceOnUse">
		<feGaussianBlur in="SourceAlpha" stdDeviation="1" result="coloredBlur"/>
		<feOffset dx="2" dy="2" result="offsetblur" />
		<feMerge>
			<feMergeNode in="coloredBlur"/>
			<feMergeNode in="SourceGraphic"/>
		</feMerge>
	</filter>
</defs>

<g transform="translate(-27,50)">

<rect x="30" y="-48" width="140" height="26" class="solving" />
<text x="100" y="-48">
	<tspan x="100" dy="19px">Problem</tspan>
</text>

<rect x="30" y="2" width="140" height="26" class="solving" />
<text x="100" y="2">
	<tspan x="100" dy="19px">Analysis</tspan>
</text>
<line x1="100" y1="-22" x2="100" y2="2" />

<rect x="30" y="52" width="140" height="26" class="solving" />
<text x="100" y="52">
	<tspan x="100" dy="19px">Algorithm Design</tspan>
</text>
<line x1="100" y1="28" x2="100" y2="52" />

<rect x="30" y="102" width="140" height="26" />
<text x="100" y="102">
	<tspan x="100" dy="19px">Code</tspan>
</text>
<line x1="100" y1="78" x2="100" y2="102" />

<rect x="30" y="152" width="140" height="26" />
<text x="100" y="152">
	<tspan x="100" dy="19px">Preprocess</tspan>
</text>
<line x1="100" y1="128" x2="100" y2="152" />

<rect x="30" y="202" width="140" height="26" />
<text x="100" y="202">
	<tspan x="100" dy="19px">Compile</tspan>
</text>
<line x1="100" y1="178" x2="100" y2="202" />
<path d="M 170 215 h 40 m 100 0 h 10 v -92 h -150" class="error" />
<text x="220" y="202" class="error">
	<tspan x="260" dy="19px">Syntax Error</tspan>
</text>

<rect x="30" y="252" width="140" height="26" />
<text x="100" y="252">
	<tspan x="100" dy="19px">Link</tspan>
</text>
<line x1="100" y1="228" x2="100" y2="252" />

<rect x="200" y="252" width="120" height="26" />
<text x="260" y="252">
	<tspan x="260" dy="19px">Libraries</tspan>
</text>
<line x1="200" y1="265" x2="170" y2="265" />

<rect x="30" y="302" width="140" height="26" />
<text x="100" y="302">
	<tspan x="100" dy="19px">Load</tspan>
</text>
<line x1="100" y1="278" x2="100" y2="302" stroke-dasharray="2,2" />

<rect x="30" y="352" width="140" height="26" />
<text x="100" y="352">
	<tspan x="100" dy="19px">Execute</tspan>
</text>
<line x1="100" y1="328" x2="100" y2="352" />

<rect x="30" y="402" width="140" height="26"  class="solving" />
<text x="100" y="402">
	<tspan x="100" dy="19px">Results</tspan>
</text>
<line x1="100" y1="378" x2="100" y2="402" />


<path d="M 170 416 h 30 m 116 0 h 24 v -308 h -170 m 170 0 v -42 h -161 m 161 0 v -50 h -170" class="error" />
<path d="M 171 107 h -1" class="error" />
<path d="M 171 65 h -1" class="error" />

<text x="260" y="402" class="error">
	<tspan x="260" dy="19px">Semantic Error</tspan>
</text>

</g>
</svg>