<?xml version="1.0" standalone="no"?>
<!DOCTYPE svg PUBLIC "-//W3C//DTD SVG 1.1//EN"
  "http://www.w3.org/Graphics/SVG/1.1/DTD/svg11.dtd">
<svg width="220" height="185" xmlns="http://www.w3.org/2000/svg" xmlns:xlink="http://www.w3.org/1999/xlink">

   <title>Struct Visualization</title>

    <defs>
    <marker id="arrow" markerWidth="10" markerHeight="10" refX="9" refY="3" orient="auto-start-reverse" markerUnits="strokeWidth">
      <path d="M0,0 L0,6 L9,3 z" />
    </marker>
   </defs>

   <style type="text/css" >
      <![CDATA[

      text {
         font-family: Consolas, monaco, monospace;
         font-size: 12pt;
         text-anchor: middle;
      }

      rect {
         stroke: black;
         stroke-width: 1.5;
         fill: #DEEAF6;
      }

      .init {
         font-weight: bold;
      }

      .string {
         fill: #99cc99;
      }

      .int {
         fill: #cc99cc;
      }

      .double {
         fill: #f6ede2;
      }

      .bool {
         fill: #def5de;
      }

      ]]>
    </style>

   <rect x="0" y="0" width="220" height="185" style="fill:#FFFFFFAA; stroke:none;" />
   <text x="110" y="14">intList</text>
   <g id="columnGroup" transform="translate(3,16)">

      <rect x="0" y="4" width="214" height="162" />

      <rect x="65" y="8" width="140" height="130" class="string" />

      <text x="100" y="24" style="text-anchor: end"><tspan
            x="60">values</tspan><tspan
            x="112" dy="2">[0]</tspan><tspan
            x="112" dy="20px">[1]</tspan><tspan
            x="112" dy="20px">[2]</tspan><tspan
            x="112" dy="20px">[3]</tspan><tspan
            x="112" dy="21px">⋮</tspan><tspan
            x="112" dy="21px">[999]</tspan><tspan
            x="60" dy="28px">length</tspan></text>

      <rect x="116" y="12" width="80" height="20" class="double" />
      <rect x="116" y="32" width="80" height="20" class="double" />
      <rect x="116" y="52" width="80" height="20" class="double" />
      <rect x="116" y="72" width="80" height="20" class="double" />
      <rect x="116" y="92" width="80" height="22" class="double" />
      <rect x="116" y="114" width="80" height="20" class="double" />
      <rect x="65" y="142" width="80" height="20" class="double" />
      <text x="156" y="27"><tspan
            x="156" class="init">21</tspan><tspan
            x="156" dy="20px" class="init">117</tspan><tspan
            x="156" dy="20px">0</tspan><tspan
            x="156" dy="20px">0</tspan><tspan
            x="156" dy="21px">⋮</tspan><tspan
            x="156" dy="21px">0</tspan><tspan
            x="105" dy="28px" class="init">2</tspan></text>
   </g>
</svg>