<?xml version="1.0" standalone="no"?>
<!DOCTYPE svg PUBLIC "-//W3C//DTD SVG 1.1//EN"
  "http://www.w3.org/Graphics/SVG/1.1/DTD/svg11.dtd">
<svg
	width="426" height="222"
	
	xmlns="http://www.w3.org/2000/svg"
	xmlns:xlink="http://www.w3.org/1999/xlink" xml:space="preserve" overflow="hidden">

<title>Hardware Components Visualization</title>

<style type="text/css" >
<![CDATA[

	text {
		text-anchor: middle;
		font-family: sans-serif;
		font-smooth: always;
	}

	rect {
		stroke: #FFF;
		stroke-width: 1.5;
		fill: #DEEAF6;
		filter: url(#blur);
	}

	rect.cover {
		stroke: white;
		fill: #2E74B5;
		filter: url(#blur);
	}

	line {
		stroke: white;
		stroke-width: 2;
		marker-end: url(#arrow);
		filter: url(#glowing)
	}
]]>
</style>

<defs>
	<!-- A marker to be used as an arrowhead -->
	<marker
		id="arrow"
		viewBox="0 0 10 10"
		refX="8"
		refY="5"
		markerWidth="6"
		markerHeight="6"
		orient="auto-start-reverse">
		<path d="M 0 0 L 10 5 L 0 10 z" fill="white" />
	</marker>

	<filter id="blur">
		<feDropShadow in="SourceGraphic" dx="1" dy="1" stdDeviation="1.5" />
	</filter>

	<filter id="glowing" filterUnits="userSpaceOnUse">
		<feGaussianBlur in="SourceAlpha" stdDeviation="1" result="coloredBlur"/>
		<feOffset dx="2" dy="2" result="offsetblur" />
		<feMerge>
			<feMergeNode in="coloredBlur"/>
			<feMergeNode in="SourceGraphic"/>
		</feMerge>
	</filter>
</defs>

<g transform="translate(2 2)">
<rect x="130" y="0" width="160" height="166" class="cover" />

<rect x="0" y="50" width="100" height="46" />
<text x="50" y="50">
	<tspan x="50" dy="20px">Input</tspan>
	<tspan x="50" dy="20px">Device</tspan>
</text>



<rect x="150" y="20" width="120" height="66" />
<text x="210" y="20">
	<tspan x="210" dy="20px">Central</tspan>
	<tspan x="210" dy="20px">Processing</tspan>
	<tspan x="210" dy="20px">Unit (CPU)</tspan>
</text>


<rect x="150" y="120" width="120" height="26" />
<text x="210" y="120">
	<tspan x="210" dy="20px">Main Memory</tspan>
</text>


<rect x="320" y="50" width="100" height="46" />
<text x="370" y="50">
	<tspan x="370" dy="20px">Output</tspan>
	<tspan x="370" dy="20px">Device</tspan>
</text>



<rect x="130" y="190" width="160" height="26" />
<text x="210" y="190">
	<tspan x="210" dy="20px">Secondary Storage</tspan>
</text>


<line x1="100" y1="73" x2="128" y2="73" />
<line x1="290" y1="73" x2="318" y2="73" />

<line x1="190" y1="146" x2="190" y2="188" />
<line x1="230" y1="190" x2="230" y2="148" />

<line x1="190" y1="86" x2="190" y2="118" />
<line x1="230" y1="120" x2="230" y2="88" />
</g>
</svg>