<svg width="2976" height="738"
  xmlns="http://www.w3.org/2000/svg"
  xmlns:xlink="http://www.w3.org/1999/xlink" xml:space="preserve" overflow="hidden">
  <defs>
    <clipPath id="clip0">
      <rect x="82" y="1128" width="2976" height="738"/>
    </clipPath>
  </defs>
  <rect x="0" y="0" width="2976" height="738" style="fill:#FFFFFFAA; stroke:none;" />
  <g clip-path="url(#clip0)" transform="translate(-82 -1128)">
    <text font-family="Arial,Arial_MSFontService,sans-serif" font-weight="400" font-size="83" transform="matrix(1 0 0 1 794.625 1783)">Time</text>
    <text font-family="Arial,Arial_MSFontService,sans-serif" font-weight="400" font-size="128" transform="matrix(1 0 0 1 159.843 1313)">∞</text>
    <text font-family="Arial,Arial_MSFontService,sans-serif" font-weight="400" font-size="73" transform="matrix(1 0 0 1 189.827 1704)">0</text>
    <text font-family="Arial,Arial_MSFontService,sans-serif" font-weight="400" font-size="83" transform="matrix(1 0 0 1 698.574 1233)">Analog</text>
    <path d="M319.5 1676.93C347.434 1660.85 375.369 1644.77 396.044 1602.92 416.72 1561.07 426.838 1450.94 443.554 1425.83 460.271 1400.72 482.266 1438.6 496.343 1452.26 510.421 1465.91 511.74 1502.04 528.017 1507.76 544.293 1513.49 575.527 1511.73 594.003 1486.62 612.479 1461.51 621.718 1380.01 638.874 1357.1 656.031 1334.2 683.305 1345.21 696.942 1349.17 710.579 1353.14 716.738 1362.83 720.697 1380.89 724.656 1398.95 719.377 1431.55 720.697 1457.54 722.017 1483.54 720.257 1521.42 728.616 1536.84 736.974 1552.26 758.969 1559.31 770.847 1550.06 782.724 1540.8 791.522 1502.48 799.881 1481.33 808.239 1460.19 814.838 1436.4 820.997 1423.18 827.155 1409.97 833.314 1404.24 836.833 1402.04 840.353 1399.83 840.792 1406 842.112 1409.97 843.432 1413.93 841.673 1417.46 844.752 1425.83 847.831 1434.2 857.51 1439.92 860.589 1460.19 863.668 1480.45 861.028 1522.74 863.228 1547.41 865.427 1572.08 870.266 1611.29 873.786 1608.21 877.305 1605.12 879.945 1536.84 884.344 1528.91 888.743 1520.98 895.781 1565.91 900.18 1560.63 904.579 1555.34 907.659 1501.6 910.738 1497.19 913.817 1492.79 914.697 1530.23 918.656 1534.2 922.616 1538.16 931.854 1519.22 934.493 1520.98 937.133 1522.74 931.414 1543.45 934.493 1544.77 937.573 1546.09 948.57 1524.06 952.969 1528.91 957.369 1533.76 954.289 1571.2 960.888 1573.84 967.487 1576.49 984.203 1536.84 992.561 1544.77 1000.92 1552.7 1004.88 1613.49 1011.04 1621.42 1017.2 1629.35 1021.6 1589.26 1029.51 1592.35 1037.43 1595.43 1052.83 1643.01 1058.55 1639.92 1064.27 1636.84 1060.31 1596.75 1063.83 1573.84 1067.35 1550.94 1075.26 1507.76 1079.66 1502.48 1084.06 1497.19 1086.7 1567.24 1090.22 1542.13 1093.74 1517.02 1096.38 1355.34 1100.78 1351.82 1105.18 1348.29 1108.7 1486.62 1116.62 1520.98 1124.53 1555.34 1138.61 1571.2 1148.29 1557.98 1157.97 1544.77 1167.21 1483.98 1174.68 1441.69 1182.16 1399.39 1174.24 1321.42 1193.16 1304.24 1212.08 1287.06 1266.62 1304.24 1288.18 1338.6 1309.74 1372.96 1312.38 1475.61 1322.49 1510.41 1332.61 1545.21 1342.29 1530.23 1348.89 1547.41 1355.49 1564.59 1354.17 1598.95 1362.09 1613.49 1370 1628.03 1388.04 1629.79 1396.4 1634.64 1404.76 1639.48 1397.72 1633.76 1412.23 1642.57 1426.75 1651.38 1463.26 1675.61 1483.5 1687.5" stroke="#000000" stroke-width="6.875" stroke-linecap="round" stroke-linejoin="round" stroke-miterlimit="10" fill="none" fill-rule="evenodd"/>
    <path d="M313.134 1673.88 312.862 1291.79C312.86 1288.94 315.167 1286.63 318.015 1286.63 320.862 1286.62 323.173 1288.93 323.175 1291.78L323.446 1673.87C323.448 1676.72 321.142 1679.03 318.294 1679.03 315.446 1679.04 313.136 1676.73 313.134 1673.88ZM302.553 1296.95 318 1266 333.491 1296.93Z" fill="#A89968"/>
    <path d="M319 1670.84 1561.44 1670.84C1564.29 1670.84 1566.59 1673.15 1566.59 1676 1566.59 1678.85 1564.29 1681.16 1561.44 1681.16L319 1681.16C316.152 1681.16 313.844 1678.85 313.844 1676 313.844 1673.15 316.152 1670.84 319 1670.84ZM1556.28 1660.53 1587.21 1676 1556.28 1691.47Z" fill="#A89968"/>
    <path d="M1722.13 1677.88 1721.86 1295.79C1721.86 1292.94 1724.17 1290.63 1727.01 1290.63 1729.86 1290.62 1732.17 1292.93 1732.17 1295.78L1732.45 1677.87C1732.45 1680.72 1730.14 1683.03 1727.29 1683.03 1724.45 1683.04 1722.14 1680.73 1722.13 1677.88ZM1711.55 1300.95 1727 1270 1742.49 1300.93Z" fill="#A89968"/>
    <path d="M1727.01 1674.84 3001.94 1678.16C3004.79 1678.16 3007.09 1680.48 3007.08 1683.33 3007.08 1686.17 3004.76 1688.48 3001.92 1688.47L1726.99 1685.16C1724.14 1685.15 1721.84 1682.83 1721.84 1679.99 1721.85 1677.14 1724.17 1674.84 1727.01 1674.84ZM2996.81 1667.83 3027.7 1683.38 2996.73 1698.77Z" fill="#A89968"/>
    <text font-family="Arial,Arial_MSFontService,sans-serif" font-weight="400" font-size="83" transform="matrix(1 0 0 1 2297.13 1797)">Time</text>
    <text font-family="Arial,Arial_MSFontService,sans-serif" font-weight="400" font-size="73" transform="matrix(1 0 0 1 1660.77 1706)">0</text>
    <text font-family="Arial,Arial_MSFontService,sans-serif" font-weight="400" font-size="73" transform="matrix(1 0 0 1 1657.61 1396)">1</text>
    <text font-family="Arial,Arial_MSFontService,sans-serif" font-weight="400" font-size="83" transform="matrix(1 0 0 1 2243.32 1233)">Digital</text>
    <path d="M1725.5 1356.5 1851.13 1356.5 1851.13 1680.47 2087.64 1680.47" stroke="#000000" stroke-width="6.875" stroke-linecap="round" stroke-linejoin="round" stroke-miterlimit="10" fill="none" fill-rule="evenodd"/>
    <path d="M0 0 235.678 0 235.678 318.903 471.356 318.903" stroke="#000000" stroke-width="6.875" stroke-linecap="round" stroke-linejoin="round" stroke-miterlimit="10" fill="none" fill-rule="evenodd" transform="matrix(1 0 0 -1 1854.5 1680.4)"/>
    <path d="M2326.5 1361.5 2326.5 1680.4" stroke="#000000" stroke-width="6.875" stroke-linecap="round" stroke-linejoin="round" stroke-miterlimit="10" fill="none" fill-rule="evenodd"/>
    <path d="M2326.5 1679.5 2447.96 1679.5" stroke="#000000" stroke-width="6.875" stroke-linecap="round" stroke-linejoin="round" stroke-miterlimit="10" fill="none" fill-rule="evenodd"/>
    <path d="M0 0 0.000360892 316.521" stroke="#000000" stroke-width="6.875" stroke-linecap="round" stroke-linejoin="round" stroke-miterlimit="10" fill="none" fill-rule="evenodd" transform="matrix(1 0 0 -1 2448.5 1678.02)"/>
    <path d="M2448.5 1360.5 2569.96 1360.5" stroke="#000000" stroke-width="6.875" stroke-linecap="round" stroke-linejoin="round" stroke-miterlimit="10" fill="none" fill-rule="evenodd"/>
    <path d="M2569.5 1682.5 2690.96 1682.5" stroke="#000000" stroke-width="6.875" stroke-linecap="round" stroke-linejoin="round" stroke-miterlimit="10" fill="none" fill-rule="evenodd"/>
    <path d="M2569.5 1360.5 2569.5 1682.18" stroke="#000000" stroke-width="6.875" stroke-linecap="round" stroke-linejoin="round" stroke-miterlimit="10" fill="none" fill-rule="evenodd"/>
    <path d="M2690.5 1360.5 2811.96 1360.5" stroke="#000000" stroke-width="6.875" stroke-linecap="round" stroke-linejoin="round" stroke-miterlimit="10" fill="none" fill-rule="evenodd"/>
    <path d="M2812.5 1682.5 2933.96 1682.5" stroke="#000000" stroke-width="6.875" stroke-linecap="round" stroke-linejoin="round" stroke-miterlimit="10" fill="none" fill-rule="evenodd"/>
    <path d="M2690.5 1360.5 2690.5 1682.18" stroke="#000000" stroke-width="6.875" stroke-linecap="round" stroke-linejoin="round" stroke-miterlimit="10" fill="none" fill-rule="evenodd"/>
    <path d="M2812.5 1363.5 2812.5 1682.58" stroke="#000000" stroke-width="6.875" stroke-linecap="round" stroke-linejoin="round" stroke-miterlimit="10" fill="none" fill-rule="evenodd"/>
  </g>
</svg>